<?xml version="1.0" encoding="UTF-8" standalone="no"?>
<!DOCTYPE svg PUBLIC "-//W3C//DTD SVG 1.1//EN" "http://www.w3.org/Graphics/SVG/1.1/DTD/svg11.dtd">
<svg width="100%" height="100%" viewBox="0 0 922 446" version="1.1" xmlns="http://www.w3.org/2000/svg" xmlns:xlink="http://www.w3.org/1999/xlink" xml:space="preserve" xmlns:serif="http://www.serif.com/" style="fill-rule:evenodd;clip-rule:evenodd;stroke-linejoin:round;stroke-miterlimit:1.41421;">
    <g transform="matrix(1,0,0,1,-1373.26,-1177.23)">
        <g transform="matrix(8.42995,0,8.88178e-16,8.42995,-6625.43,-1235.9)">
            <g transform="matrix(0.118625,0,-1.24983e-17,0.118625,785.939,146.608)">
                <path d="M2280.7,1177.23C2290.24,1177.23 2296.54,1184.98 2294.75,1194.53L2215.79,1605.51C2214,1615.05 2204.8,1622.8 2195.26,1622.8C2133.56,1622.85 1918.26,1621.1 1917.81,1620.12C1875.07,1525.99 1510.63,1509.44 1387.62,1523.12C1378.07,1523.12 1371.77,1515.37 1373.56,1505.83L1431.82,1194.53C1433.6,1184.98 1442.8,1177.23 1452.35,1177.23L2280.7,1177.23ZM2132.6,1597.8L2147.33,1538.71L2130.03,1538.71L2115.29,1597.8L2132.6,1597.8ZM2054.42,1553.5L2058.11,1538.71L2011.21,1538.71L1996.48,1597.8L2043.38,1597.8L2047.09,1582.92L2015.79,1582.92L2017.6,1575.65L2047.19,1575.65L2050.91,1560.77L2021.31,1560.77L2023.13,1553.5L2054.42,1553.5ZM2197.97,1597.8L2191.1,1538.71L2176.75,1538.71L2140.4,1597.8L2157.8,1597.8L2162.75,1589.82L2179.61,1589.82L2180.57,1597.8L2197.97,1597.8ZM2092.14,1538.71L2065.55,1538.71L2050.82,1597.8L2077.41,1597.8C2081.47,1597.8 2085.48,1597.02 2089.45,1595.47C2093.42,1593.92 2097.08,1591.79 2100.44,1589.1C2103.79,1586.41 2106.7,1583.27 2109.14,1579.69C2111.59,1576.1 2113.32,1572.27 2114.33,1568.21C2115.35,1564.14 2115.52,1560.32 2114.87,1556.73C2114.21,1553.14 2112.87,1550.02 2110.85,1547.36C2108.82,1544.7 2106.22,1542.59 2103.02,1541.04C2099.83,1539.48 2096.2,1538.71 2092.14,1538.71ZM1957.05,1538.71L1942.16,1538.71L1927.43,1597.8L1944.11,1597.8L1950.99,1570.18L1957.33,1587.94C1957.51,1588.42 1957.82,1588.73 1958.26,1588.88C1958.7,1589.03 1959.07,1589.1 1959.37,1589.1C1959.73,1589.1 1960.16,1589.03 1960.68,1588.88C1961.2,1588.73 1961.66,1588.42 1962.08,1587.94L1977.27,1570.18L1970.38,1597.8L1986.97,1597.8L2001.71,1538.71L1986.82,1538.71C1985.98,1538.71 1985.27,1539.07 1984.67,1539.78L1966.3,1561.3L1958.75,1539.78C1958.39,1539.07 1957.83,1538.71 1957.05,1538.71ZM2086.66,1554.04C2088.63,1554.04 2090.38,1554.41 2091.89,1555.16C2093.41,1555.9 2094.66,1556.92 2095.62,1558.2C2096.59,1559.48 2097.23,1560.97 2097.55,1562.67C2097.88,1564.37 2097.8,1566.2 2097.3,1568.16C2096.82,1570.13 2095.99,1571.96 2094.81,1573.66C2093.64,1575.36 2092.26,1576.85 2090.65,1578.13C2089.05,1579.41 2087.3,1580.43 2085.41,1581.17C2083.52,1581.91 2081.59,1582.29 2079.62,1582.29L2071.45,1582.29L2078.5,1554.04L2086.66,1554.04ZM2178.59,1575.2L2171.05,1575.2L2177.68,1563.73L2178.59,1575.2ZM2049.96,1488.85L2075.92,1355.26C2075.95,1355.14 2076.04,1355.05 2076.16,1355.04C2076.28,1355.02 2076.4,1355.09 2076.45,1355.2L2135.52,1488.85C2135.52,1488.85 2203.11,1488.85 2211.4,1488.85C2211.88,1488.85 2212.3,1488.51 2212.39,1488.03C2215.57,1471.69 2265.42,1215.24 2265.42,1215.24C2266.1,1212.3 2265.08,1211.06 2262.79,1211.05L2262.73,1211.05C2262.53,1211.05 2262.32,1211.06 2262.11,1211.08L2187.83,1211.08C2187.83,1211.08 2164.39,1331.64 2161.76,1345.15C2161.74,1345.28 2161.66,1345.37 2161.56,1345.43L2161.55,1345.43C2161.51,1345.45 2161.47,1345.46 2161.43,1345.47C2161.41,1345.47 2161.4,1345.47 2161.39,1345.47L2161.38,1345.47C2161.23,1345.47 2161.09,1345.38 2161.03,1345.24C2155.29,1332.14 2102.26,1211.08 2102.26,1211.08L2025.55,1211.08L1971.56,1488.85L2049.96,1488.85ZM1685.36,1488.85L1739.35,1211.08L1669.38,1211.08C1665.45,1211.08 1662.17,1212.77 1659.55,1216.14L1578.77,1317.3L1537.74,1216.14C1535.86,1212.77 1533.1,1211.08 1529.44,1211.08L1466.77,1211.08C1462.03,1210.74 1459.29,1212.67 1458.39,1216.69C1458.39,1216.69 1411.32,1458.85 1405.98,1486.32C1405.86,1486.94 1406.02,1487.59 1406.42,1488.08C1406.83,1488.56 1407.43,1488.85 1408.06,1488.85L1483.88,1488.85L1508.88,1360.27C1508.91,1360.1 1509.04,1359.98 1509.21,1359.96C1509.38,1359.94 1509.54,1360.04 1509.6,1360.19C1513.76,1370.29 1543.48,1442.48 1543.48,1442.48C1544.44,1444.73 1545.98,1446.21 1548.09,1446.91C1550.21,1447.61 1551.96,1447.96 1553.37,1447.96C1555.06,1447.96 1557.09,1447.61 1559.48,1446.91C1561.86,1446.21 1563.97,1444.73 1565.81,1442.48C1565.81,1442.48 1624.15,1369.6 1631.8,1360.05C1631.89,1359.94 1632.05,1359.9 1632.18,1359.96C1632.32,1360.02 1632.39,1360.17 1632.37,1360.32C1629.74,1373.83 1607.38,1488.85 1607.38,1488.85L1685.36,1488.85ZM1923.07,1390.18L1970.53,1437.28C1942.18,1468.71 1901.44,1488.85 1858.04,1488.85C1782.06,1488.85 1726.48,1427.16 1734,1351.19C1741.53,1275.21 1809.31,1213.53 1885.29,1213.53C1925.56,1213.53 1960.1,1230.86 1982.55,1258.47L1923.87,1308.15C1912.2,1293.24 1893.97,1283.74 1873.09,1283.74C1835.83,1283.74 1804.15,1313.96 1802.37,1351.19C1800.59,1388.42 1829.39,1418.64 1866.65,1418.64C1889.37,1418.64 1910.02,1407.4 1923.07,1390.18ZM1893.57,1350.36C1893.04,1353.75 1892.16,1357.63 1890.71,1361.79C1890.03,1363.73 1889.23,1365.73 1888.29,1367.77C1888.25,1367.87 1888.19,1367.98 1888.15,1368.08C1882.62,1379.9 1871.25,1394.77 1847.91,1405.65C1865.78,1412.3 1885.91,1409.79 1901.79,1399.45C1904.39,1380.41 1901.62,1363.73 1893.57,1350.36ZM1882.03,1370.93C1878.79,1372.24 1874.95,1373.51 1870.58,1374.44C1868.55,1374.88 1866.4,1375.24 1864.16,1375.5C1864.04,1375.51 1863.93,1375.53 1863.82,1375.54C1851.19,1376.94 1833.43,1375.19 1813.46,1362.29C1812.75,1361.84 1812.05,1361.36 1811.33,1360.88C1813.65,1376.38 1822.34,1390.78 1836.61,1400C1838.62,1401.3 1840.69,1402.44 1842.81,1403.47C1860.81,1395.77 1874.14,1384.73 1882.03,1370.93ZM1928.96,1347.31C1913.56,1335.91 1897.44,1330.23 1881.47,1330.62C1884.19,1332.71 1887.14,1335.33 1890.05,1338.57C1891.4,1340.08 1892.75,1341.73 1894.06,1343.51C1894.12,1343.6 1894.18,1343.69 1894.25,1343.78C1901.78,1354.19 1908.95,1371.04 1906.37,1396.15C1911.06,1392.44 1915.26,1387.98 1918.79,1382.81C1926.25,1371.85 1929.52,1359.4 1928.96,1347.31ZM1858.36,1371.82C1855.63,1369.74 1852.67,1367.13 1849.74,1363.9C1848.38,1362.4 1847.03,1360.77 1845.71,1358.99C1845.64,1358.9 1845.58,1358.81 1845.52,1358.72C1837.93,1348.35 1830.66,1331.54 1833.11,1306.41C1828.52,1310.09 1824.4,1314.49 1820.94,1319.57C1813.41,1330.62 1810.15,1343.19 1810.78,1355.38C1826.25,1366.69 1842.4,1372.29 1858.36,1371.82ZM1846.15,1352.15C1846.67,1348.7 1847.56,1344.75 1849.02,1340.52C1849.68,1338.63 1850.44,1336.69 1851.34,1334.7C1851.41,1334.56 1851.48,1334.42 1851.55,1334.27C1857.04,1322.44 1868.33,1307.58 1891.53,1296.62C1873.63,1290.07 1853.51,1292.67 1837.68,1303.09C1835.17,1322.14 1838.04,1338.81 1846.15,1352.15ZM1857.62,1331.46C1860.91,1330.13 1864.81,1328.86 1869.26,1327.93C1871.3,1327.51 1873.45,1327.16 1875.7,1326.9C1875.81,1326.89 1875.92,1326.88 1876.04,1326.87C1889.12,1325.49 1907.68,1327.51 1928.44,1341.81C1926.19,1326.19 1917.48,1311.66 1903.12,1302.38C1901.02,1301.02 1898.85,1299.84 1896.65,1298.78C1878.71,1306.56 1865.44,1317.64 1857.62,1331.46Z" style="fill:white;"/>
            </g>
        </g>
    </g>
</svg>
